GIL03_xslow1_RRA_states
nRows=7
nColumns=47

# SIMM Motion File Header:
name GIL03_xslow1_RRA_states
datacolumns 47
datarows 7
otherdata 1
range 0.92850000000000044000 0.93150000000000044000
endheader
time	pelvis_tx	pelvis_ty	pelvis_tz	pelvis_tilt	pelvis_list	pelvis_rotation	hip_flexion_r	hip_adduction_r	hip_rotation_r	knee_angle_r	ankle_angle_r	subtalar_angle_r	mtp_angle_r	hip_flexion_l	hip_adduction_l	hip_rotation_l	knee_angle_l	ankle_angle_l	subtalar_angle_l	mtp_angle_l	lumbar_extension	lumbar_bending	lumbar_rotation	pelvis_tx_u	pelvis_ty_u	pelvis_tz_u	pelvis_tilt_u	pelvis_list_u	pelvis_rotation_u	hip_flexion_r_u	hip_adduction_r_u	hip_rotation_r_u	knee_angle_r_u	ankle_angle_r_u	subtalar_angle_r_u	mtp_angle_r_u	hip_flexion_l_u	hip_adduction_l_u	hip_rotation_l_u	knee_angle_l_u	ankle_angle_l_u	subtalar_angle_l_u	mtp_angle_l_u	lumbar_extension_u	lumbar_bending_u	lumbar_rotation_u
      0.92850000000000044000	      1.84623957518452930000	      0.88866409014473524000	     -0.26354824675071570000	      2.82499708853557420000	     -2.64740245510042630000	      2.97723230396452540000	     12.65183668896375700000	      4.55699544487257140000	     12.87109430448153800000	    -13.79780357388608900000	      1.24565348565788140000	     -0.00000000000000542319	     -0.00000000000000711562	    -12.47543313419494200000	     -3.98936842144359180000	     -1.68703652116513840000	    -24.01357653002804000000	      7.69142421874420190000	     -0.00000000000009008936	     -0.00000000000005713484	    -11.08855311739971800000	      4.13656032546943030000	     -3.64123729951482260000	      0.78486075755876050000	      0.05562485146611927100	      0.09668003381687516300	    -10.73681406529428500000	     -9.61605716655716060000	     -0.46463617734208729000	    -37.88722132250418200000	     16.35502697553999600000	    -31.98078602413680100000	     -8.22334669891716170000	     21.01780399926912000000	      0.00000000000004001795	     -0.00000000000009972129	      2.08204631624465050000	    -48.20782438144822600000	    -75.83560855387074200000	    -45.02406974167074300000	   -117.47947217605629000000	     -0.00000000000013321409	     -0.00000000000070555602	     26.98037595127384600000	     11.98841128783538100000	     -4.89878311777168300000
      0.92900000000000049000	      1.84663197956909640000	      0.88869187423520246000	     -0.26349987561288263000	      2.81959844605566760000	     -2.65218353228222310000	      2.97696666382494660000	     12.63293999825586100000	      4.56514374434701150000	     12.85496572350472800000	    -13.80195169145183700000	      1.25624221520630170000	     -0.00000000000000540411	     -0.00000000000000716592	    -12.47438832845269000000	     -4.01346093427373680000	     -1.72496599429194150000	    -24.03600070444922200000	      7.63253184783290180000	     -0.00000000000009015626	     -0.00000000000005748976	    -11.07502845555847400000	      4.14251061113240480000	     -3.64360381703816260000	      0.78475555479982639000	      0.05551132806439865900	      0.09680399552295392000	    -10.85783579032185200000	     -9.50805785325714940000	     -0.59774973587811564000	    -37.69937258787681600000	     16.23812511747908300000	    -32.53156967405375600000	     -8.36928551265242330000	     21.33730895137463400000	      0.00000000000003321061	     -0.00000000000010698066	      2.09767272057459090000	    -48.16172610242005400000	    -75.88070803233408400000	    -44.67330355716418200000	   -118.08963026847519000000	     -0.00000000000013745866	     -0.00000000000070882213	     27.11818742111384100000	     11.81259861319588800000	     -4.56763790384587050000
      0.92950000000000044000	      1.84702432950922920000	      0.88871960129737371000	     -0.26345144329518766000	      2.81413917542909960000	     -2.65691032508725700000	      2.97663473938559390000	     12.61413747761190700000	      4.57323352706508060000	     12.83856472020820200000	    -13.80617301588442000000	      1.26699084384954870000	     -0.00000000000000538865	     -0.00000000000000721799	    -12.47333494672063700000	     -4.03752965524170460000	     -1.76291565461241580000	    -24.05825055252944400000	      7.57333486409303270000	     -0.00000000000009022081	     -0.00000000000005785135	    -11.06143501780971100000	      4.14837280134081080000	     -3.64580530710907790000	      0.78464297152989648000	      0.05539675224414514200	      0.09692471723612719500	    -10.97932129000020400000	     -9.39893154587657340000	     -0.72975229542422915000	    -37.51055653334283600000	     16.12096596720314800000	    -33.07044024556634600000	     -8.51616344717134770000	     21.65710754953654400000	      0.00000000000002672938	     -0.00000000000010741903	      2.11638763438064580000	    -48.11267412102238700000	    -75.91635998414003000000	    -44.32685138490237600000	   -118.69813365751688000000	     -0.00000000000011899453	     -0.00000000000075177299	     27.25547175560567200000	     11.63604976211982100000	     -4.23871112355711240000
      0.93000000000000049000	      1.84741662131136960000	      0.88874727081716787000	     -0.26340295145461678000	      2.80861905141488450000	     -2.66158227883414080000	      2.97623710622550200000	     12.59542959163052300000	      4.58126466749119390000	     12.82189728707370200000	    -13.81046799141036800000	      1.27789936086839660000	     -0.00000000000000537671	     -0.00000000000000727384	    -12.47227141597125000000	     -4.06157311905203680000	     -1.80088077652534540000	    -24.08032829587303400000	      7.51383402206913860000	     -0.00000000000009028026	     -0.00000000000005822542	    -11.04777307629747300000	      4.15414654489507210000	     -3.64784291618401780000	      0.78452301279327896000	      0.05528115490552456400	      0.09704208501825253900	    -11.10124677289122300000	     -9.28869546779188050000	     -0.86058656193643779000	    -37.32084113836023000000	     16.00355010182918000000	    -33.59728731588385400000	     -8.66386064501791430000	     21.97713307444547200000	      0.00000000000002243156	     -0.00000000000011276646	      2.13825164918282430000	    -48.06068617050286900000	    -75.94254541710870400000	    -43.98483991692580700000	   -119.30478859207301000000	     -0.00000000000011550078	     -0.00000000000075054882	     27.39220097404939500000	     11.45880519225534200000	     -3.91211282355670020000
      0.93050000000000044000	      1.84780885129395410000	      0.88877488228726387000	     -0.26335440178831560000	      2.80303785950946870000	     -2.66619883822651540000	      2.97577435731063120000	     12.57681677426635000000	      4.58923703400283060000	     12.80496945376841500000	    -13.81483699126772900000	      1.28896801054432150000	     -0.00000000000000536629	     -0.00000000000000733109	    -12.47119616064712500000	     -4.08558985499376260000	     -1.83885661973401350000	    -24.10223615332497700000	      7.45403041476226670000	     -0.00000000000009033826	     -0.00000000000005860259	    -11.03404291413923500000	      4.15983149703194140000	     -3.64971782631261240000	      0.78439568575476259000	      0.05516456761684536400	      0.09715598390780505500	    -11.22358701109065900000	     -9.17736562686424050000	     -0.99019385129951265000	    -37.13029908815487100000	     15.88587551168529400000	    -34.11200848798342400000	     -8.81224647571514910000	     22.29735853240800100000	      0.00000000000001847369	     -0.00000000000009982139	      2.16332218712470990000	    -48.00577984182255200000	    -75.95924908728999000000	    -43.64739405618875200000	   -119.90940696370689000000	     -0.00000000000010813732	     -0.00000000000076552350	     27.52834622174500400000	     11.28090389307442700000	     -3.58795308949693800000
      0.93100000000000049000	      1.84820101576997800000	      0.88880243522504876000	     -0.26330579606756421000	      2.79739539932326140000	     -2.67075946513322780000	      2.97524712622891440000	     12.55829941887632400000	      4.59715049999960620000	     12.78778731644087000000	    -13.81928033275513600000	      1.30019674155553580000	     -0.00000000000000535653	     -0.00000000000000738354	    -12.47010754968463100000	     -4.10957841564695410000	     -1.87683844296609110000	    -24.12397647146891800000	      7.39392498739890150000	     -0.00000000000009039070	     -0.00000000000005898883	    -11.02024483208711200000	      4.16542734608415800000	     -3.65143129353156800000	      0.78426099592966358000	      0.05504702206975933800	      0.09726630156397485200	    -11.34631760906483900000	     -9.06496001531568930000	     -1.11851789704995140000	    -36.93899914600374500000	     15.76794312489382600000	    -34.61450194839492400000	     -8.96120171193609140000	     22.61771517370237200000	      0.00000000000002178303	     -0.00000000000012016680	      2.19165733169947790000	    -47.94797412672001300000	    -75.96645688828363100000	    -43.31463789438345200000	   -120.51179048821869000000	     -0.00000000000011240695	     -0.00000000000077082491	     27.66387925316116600000	     11.10238665028728100000	     -3.26633924556605050000
      0.93150000000000044000	      1.84859311106399770000	      0.88882992915498493000	     -0.26325713610250928000	      2.79169148111712010000	     -2.67526362170335790000	      2.97465606288229400000	     12.53987788922392400000	      4.60500493383958090000	     12.77035700531772400000	    -13.82379826619336600000	      1.31158574301131140000	     -0.00000000000000534722	     -0.00000000000000744038	    -12.46900395004734500000	     -4.13353734900061290000	     -1.91482149223362510000	    -24.14555159316309500000	      7.33351902868802610000	     -0.00000000000009044704	     -0.00000000000005937546	    -11.00637914174229700000	      4.17093378752551390000	     -3.65298460771498630000	      0.78411895091563322000	      0.05492855057666588800	      0.09737292466753531800	    -11.46941277890524600000	     -8.95149538504851880000	     -1.24550107749291320000	    -36.74701468890910400000	     15.64975127100838900000	    -35.10467381377228700000	     -9.11059643046933410000	     22.93817379263913000000	      0.00000000000001714089	     -0.00000000000010536955	      2.22331205173397350000	    -47.88728783376874500000	    -75.96415839419147200000	    -42.98669371878793300000	   -121.11174653922681000000	     -0.00000000000011198074	     -0.00000000000077801003	     27.79877099752572200000	     10.92329274739485500000	     -2.94737862291960130000
